<mxfile host="app.diagrams.net" modified="2022-05-03T09:48:33.644Z" agent="5.0 (Windows)" etag="E4bxDNTGhmO9SK3oX81_" version="17.0.0" type="github" pages="2">
  <diagram id="tVbQm86MXpDArx8x3mV3" name="DiagCom">
    <mxGraphModel dx="1422" dy="780" grid="1" gridSize="10" guides="1" tooltips="1" connect="1" arrows="1" fold="1" page="1" pageScale="1" pageWidth="827" pageHeight="1169" math="0" shadow="0">
      <root>
        <mxCell id="0" />
        <mxCell id="1" parent="0" />
        <mxCell id="AisRIFuu1fv7a_WiVVZh-4" style="edgeStyle=orthogonalEdgeStyle;rounded=0;orthogonalLoop=1;jettySize=auto;html=1;entryX=0.12;entryY=0.488;entryDx=0;entryDy=0;entryPerimeter=0;" parent="1" source="AisRIFuu1fv7a_WiVVZh-1" target="AisRIFuu1fv7a_WiVVZh-2" edge="1">
          <mxGeometry relative="1" as="geometry" />
        </mxCell>
        <mxCell id="AisRIFuu1fv7a_WiVVZh-1" value="&lt;b&gt;:&lt;u&gt;Cliente&lt;/u&gt;&lt;/b&gt;" style="shape=umlActor;verticalLabelPosition=bottom;verticalAlign=top;html=1;" parent="1" vertex="1">
          <mxGeometry x="50" y="235" width="40" height="60" as="geometry" />
        </mxCell>
        <mxCell id="AisRIFuu1fv7a_WiVVZh-7" style="edgeStyle=orthogonalEdgeStyle;rounded=0;orthogonalLoop=1;jettySize=auto;html=1;" parent="1" source="AisRIFuu1fv7a_WiVVZh-2" target="AisRIFuu1fv7a_WiVVZh-6" edge="1">
          <mxGeometry relative="1" as="geometry" />
        </mxCell>
        <mxCell id="AisRIFuu1fv7a_WiVVZh-9" style="edgeStyle=orthogonalEdgeStyle;rounded=0;orthogonalLoop=1;jettySize=auto;html=1;entryX=0.27;entryY=0.188;entryDx=0;entryDy=0;entryPerimeter=0;exitX=0.76;exitY=0.038;exitDx=0;exitDy=0;exitPerimeter=0;" parent="1" source="AisRIFuu1fv7a_WiVVZh-2" target="AisRIFuu1fv7a_WiVVZh-2" edge="1">
          <mxGeometry relative="1" as="geometry">
            <mxPoint x="440" y="160" as="targetPoint" />
            <Array as="points">
              <mxPoint x="416" y="180" />
              <mxPoint x="367" y="180" />
            </Array>
          </mxGeometry>
        </mxCell>
        <mxCell id="AisRIFuu1fv7a_WiVVZh-2" value="&lt;font style=&quot;font-size: 10px&quot;&gt;:&lt;u&gt;&lt;b&gt;Pantalla Consultar Programa&lt;/b&gt;&lt;/u&gt;&lt;/font&gt;" style="shape=umlBoundary;whiteSpace=wrap;html=1;" parent="1" vertex="1">
          <mxGeometry x="340" y="230" width="90" height="70" as="geometry" />
        </mxCell>
        <mxCell id="AisRIFuu1fv7a_WiVVZh-3" value="&lt;h1&gt;CU NÂ°1:&lt;br&gt;&lt;/h1&gt;&lt;p&gt;Consultar programa por nombre&lt;/p&gt;" style="text;html=1;strokeColor=none;fillColor=none;spacing=5;spacingTop=-20;whiteSpace=wrap;overflow=hidden;rounded=0;" parent="1" vertex="1">
          <mxGeometry x="100" y="10" width="190" height="80" as="geometry" />
        </mxCell>
        <mxCell id="AisRIFuu1fv7a_WiVVZh-5" value="&lt;div&gt;1. opcionConsultarProgramaPorNombre()&lt;/div&gt;" style="html=1;verticalAlign=bottom;endArrow=block;rounded=0;" parent="1" edge="1">
          <mxGeometry width="80" relative="1" as="geometry">
            <mxPoint x="110" y="250" as="sourcePoint" />
            <mxPoint x="310" y="250" as="targetPoint" />
          </mxGeometry>
        </mxCell>
        <mxCell id="sOXEI3E_A1EtLkcOLNvH-8" style="rounded=0;orthogonalLoop=1;jettySize=auto;html=1;entryX=0;entryY=0.5;entryDx=0;entryDy=0;" parent="1" source="AisRIFuu1fv7a_WiVVZh-6" target="sOXEI3E_A1EtLkcOLNvH-7" edge="1">
          <mxGeometry relative="1" as="geometry" />
        </mxCell>
        <mxCell id="sOXEI3E_A1EtLkcOLNvH-12" style="edgeStyle=none;rounded=0;orthogonalLoop=1;jettySize=auto;html=1;fontSize=10;" parent="1" source="AisRIFuu1fv7a_WiVVZh-6" target="sOXEI3E_A1EtLkcOLNvH-10" edge="1">
          <mxGeometry relative="1" as="geometry" />
        </mxCell>
        <mxCell id="AisRIFuu1fv7a_WiVVZh-6" value="&lt;font style=&quot;font-size: 10px&quot;&gt;:&lt;b&gt;&lt;u&gt;Gestor Consultar Programa&lt;/u&gt;&lt;/b&gt;&lt;/font&gt;" style="ellipse;shape=umlControl;whiteSpace=wrap;html=1;" parent="1" vertex="1">
          <mxGeometry x="700" y="230" width="70" height="70" as="geometry" />
        </mxCell>
        <mxCell id="AisRIFuu1fv7a_WiVVZh-8" value="&lt;div&gt;8. * estaVigente()&lt;/div&gt;" style="html=1;verticalAlign=bottom;endArrow=block;rounded=0;" parent="1" edge="1">
          <mxGeometry x="0.0811" y="33" width="80" relative="1" as="geometry">
            <mxPoint x="800" y="210" as="sourcePoint" />
            <mxPoint x="910" y="130" as="targetPoint" />
            <mxPoint as="offset" />
          </mxGeometry>
        </mxCell>
        <mxCell id="AisRIFuu1fv7a_WiVVZh-10" value="2. habilitarPantalla()" style="html=1;verticalAlign=bottom;endArrow=block;rounded=0;" parent="1" edge="1">
          <mxGeometry width="80" relative="1" as="geometry">
            <mxPoint x="440" y="160" as="sourcePoint" />
            <mxPoint x="350" y="160" as="targetPoint" />
          </mxGeometry>
        </mxCell>
        <mxCell id="AisRIFuu1fv7a_WiVVZh-11" value="&lt;div&gt;4. solicitarTexto()&lt;/div&gt;" style="html=1;verticalAlign=bottom;endArrow=block;rounded=0;" parent="1" edge="1">
          <mxGeometry width="80" relative="1" as="geometry">
            <mxPoint x="680" y="300" as="sourcePoint" />
            <mxPoint x="480" y="300" as="targetPoint" />
            <mxPoint as="offset" />
          </mxGeometry>
        </mxCell>
        <mxCell id="AisRIFuu1fv7a_WiVVZh-14" value="&lt;div&gt;5. ingresarTexto()&lt;/div&gt;" style="html=1;verticalAlign=bottom;endArrow=block;rounded=0;" parent="1" edge="1">
          <mxGeometry width="80" relative="1" as="geometry">
            <mxPoint x="110" y="220" as="sourcePoint" />
            <mxPoint x="310" y="220" as="targetPoint" />
            <mxPoint as="offset" />
          </mxGeometry>
        </mxCell>
        <mxCell id="sOXEI3E_A1EtLkcOLNvH-4" style="edgeStyle=orthogonalEdgeStyle;rounded=0;orthogonalLoop=1;jettySize=auto;html=1;entryX=0.27;entryY=0.188;entryDx=0;entryDy=0;entryPerimeter=0;exitX=0.76;exitY=0.038;exitDx=0;exitDy=0;exitPerimeter=0;" parent="1" edge="1">
          <mxGeometry relative="1" as="geometry">
            <mxPoint x="710" y="255.03999999999996" as="targetPoint" />
            <mxPoint x="759" y="243.03999999999996" as="sourcePoint" />
            <Array as="points">
              <mxPoint x="759" y="190" />
              <mxPoint x="710" y="190" />
            </Array>
          </mxGeometry>
        </mxCell>
        <mxCell id="sOXEI3E_A1EtLkcOLNvH-5" value="7. buscarPrograma()" style="html=1;verticalAlign=bottom;endArrow=block;rounded=0;" parent="1" edge="1">
          <mxGeometry width="80" relative="1" as="geometry">
            <mxPoint x="770" y="160" as="sourcePoint" />
            <mxPoint x="680" y="160" as="targetPoint" />
          </mxGeometry>
        </mxCell>
        <mxCell id="sOXEI3E_A1EtLkcOLNvH-16" style="edgeStyle=none;rounded=0;orthogonalLoop=1;jettySize=auto;html=1;entryX=0;entryY=0.5;entryDx=0;entryDy=0;fontSize=10;exitX=1;exitY=0.5;exitDx=0;exitDy=0;" parent="1" source="sOXEI3E_A1EtLkcOLNvH-10" target="sOXEI3E_A1EtLkcOLNvH-14" edge="1">
          <mxGeometry relative="1" as="geometry">
            <mxPoint x="975" y="260" as="sourcePoint" />
          </mxGeometry>
        </mxCell>
        <mxCell id="sOXEI3E_A1EtLkcOLNvH-7" value="&lt;font style=&quot;font-size: 10px&quot;&gt;:&lt;b&gt;&lt;u&gt;Programacion&lt;/u&gt;&lt;/b&gt;&lt;/font&gt;" style="ellipse;shape=umlEntity;whiteSpace=wrap;html=1;" parent="1" vertex="1">
          <mxGeometry x="940" y="80" width="70" height="70" as="geometry" />
        </mxCell>
        <mxCell id="sOXEI3E_A1EtLkcOLNvH-9" value="&lt;div&gt;6. tomarTexto()&lt;/div&gt;" style="html=1;verticalAlign=bottom;endArrow=block;rounded=0;" parent="1" edge="1">
          <mxGeometry width="80" relative="1" as="geometry">
            <mxPoint x="480" y="250" as="sourcePoint" />
            <mxPoint x="680" y="250" as="targetPoint" />
            <mxPoint as="offset" />
          </mxGeometry>
        </mxCell>
        <mxCell id="GSx4z-SRz5qHfGtt0uug-17" style="edgeStyle=none;rounded=0;orthogonalLoop=1;jettySize=auto;html=1;entryX=0.5;entryY=0;entryDx=0;entryDy=0;fontSize=10;" parent="1" source="sOXEI3E_A1EtLkcOLNvH-10" target="GSx4z-SRz5qHfGtt0uug-16" edge="1">
          <mxGeometry relative="1" as="geometry" />
        </mxCell>
        <mxCell id="sOXEI3E_A1EtLkcOLNvH-10" value="&lt;u&gt;&lt;b&gt;&lt;font style=&quot;font-size: 10px&quot;&gt;Vigente&lt;/font&gt;&lt;/b&gt;&lt;/u&gt;&lt;font style=&quot;font-size: 10px&quot;&gt;:&lt;b&gt;&lt;u&gt;Programacion&lt;/u&gt;&lt;/b&gt;&lt;/font&gt;" style="ellipse;shape=umlEntity;whiteSpace=wrap;html=1;" parent="1" vertex="1">
          <mxGeometry x="920" y="230" width="70" height="70" as="geometry" />
        </mxCell>
        <mxCell id="sOXEI3E_A1EtLkcOLNvH-13" value="&lt;div&gt;9. * buscarProgramas()&lt;/div&gt;" style="html=1;verticalAlign=bottom;endArrow=block;rounded=0;" parent="1" edge="1">
          <mxGeometry width="80" relative="1" as="geometry">
            <mxPoint x="810" y="250" as="sourcePoint" />
            <mxPoint x="890" y="250" as="targetPoint" />
            <mxPoint as="offset" />
          </mxGeometry>
        </mxCell>
        <mxCell id="sOXEI3E_A1EtLkcOLNvH-18" style="edgeStyle=none;rounded=0;orthogonalLoop=1;jettySize=auto;html=1;entryX=0.5;entryY=1;entryDx=0;entryDy=0;fontSize=10;" parent="1" source="sOXEI3E_A1EtLkcOLNvH-14" target="sOXEI3E_A1EtLkcOLNvH-17" edge="1">
          <mxGeometry relative="1" as="geometry" />
        </mxCell>
        <mxCell id="sOXEI3E_A1EtLkcOLNvH-21" style="edgeStyle=none;rounded=0;orthogonalLoop=1;jettySize=auto;html=1;entryX=0;entryY=0.5;entryDx=0;entryDy=0;fontSize=10;" parent="1" source="sOXEI3E_A1EtLkcOLNvH-14" target="sOXEI3E_A1EtLkcOLNvH-20" edge="1">
          <mxGeometry relative="1" as="geometry" />
        </mxCell>
        <mxCell id="sOXEI3E_A1EtLkcOLNvH-14" value="&lt;font style=&quot;font-size: 10px&quot;&gt;:&lt;u&gt;&lt;b&gt;Grilla&lt;/b&gt;&lt;/u&gt;&lt;/font&gt;" style="ellipse;shape=umlEntity;whiteSpace=wrap;html=1;" parent="1" vertex="1">
          <mxGeometry x="1150" y="230" width="70" height="70" as="geometry" />
        </mxCell>
        <mxCell id="sOXEI3E_A1EtLkcOLNvH-15" value="&lt;div&gt;10. * buscarProgramas()&lt;/div&gt;" style="html=1;verticalAlign=bottom;endArrow=block;rounded=0;" parent="1" edge="1">
          <mxGeometry x="-0.1111" width="80" relative="1" as="geometry">
            <mxPoint x="1020" y="250" as="sourcePoint" />
            <mxPoint x="1130" y="250" as="targetPoint" />
            <mxPoint as="offset" />
          </mxGeometry>
        </mxCell>
        <mxCell id="sOXEI3E_A1EtLkcOLNvH-17" value="&lt;font style=&quot;font-size: 10px&quot;&gt;:&lt;u&gt;&lt;b&gt;Canal&lt;/b&gt;&lt;/u&gt;&lt;/font&gt;" style="ellipse;shape=umlEntity;whiteSpace=wrap;html=1;" parent="1" vertex="1">
          <mxGeometry x="1150" y="40" width="70" height="70" as="geometry" />
        </mxCell>
        <mxCell id="sOXEI3E_A1EtLkcOLNvH-19" value="&lt;div&gt;11. * buscarProgramas()&lt;/div&gt;" style="html=1;verticalAlign=bottom;endArrow=block;rounded=0;" parent="1" edge="1">
          <mxGeometry x="-0.0769" width="80" relative="1" as="geometry">
            <mxPoint x="1230" y="250" as="sourcePoint" />
            <mxPoint x="1360" y="250" as="targetPoint" />
            <mxPoint as="offset" />
          </mxGeometry>
        </mxCell>
        <mxCell id="sOXEI3E_A1EtLkcOLNvH-20" value="&lt;font style=&quot;font-size: 10px&quot;&gt;:&lt;u&gt;&lt;b&gt;Emision&lt;/b&gt;&lt;/u&gt;&lt;/font&gt;" style="ellipse;shape=umlEntity;whiteSpace=wrap;html=1;" parent="1" vertex="1">
          <mxGeometry x="1380" y="230" width="70" height="70" as="geometry" />
        </mxCell>
        <mxCell id="GSx4z-SRz5qHfGtt0uug-9" style="edgeStyle=none;rounded=0;orthogonalLoop=1;jettySize=auto;html=1;entryX=0.5;entryY=0;entryDx=0;entryDy=0;fontSize=10;exitX=0.771;exitY=0.957;exitDx=0;exitDy=0;exitPerimeter=0;" parent="1" source="sOXEI3E_A1EtLkcOLNvH-20" target="GSx4z-SRz5qHfGtt0uug-3" edge="1">
          <mxGeometry relative="1" as="geometry">
            <mxPoint x="1415" y="450" as="sourcePoint" />
          </mxGeometry>
        </mxCell>
        <mxCell id="GSx4z-SRz5qHfGtt0uug-10" style="edgeStyle=none;rounded=0;orthogonalLoop=1;jettySize=auto;html=1;fontSize=10;exitX=0.5;exitY=1;exitDx=0;exitDy=0;" parent="1" source="sOXEI3E_A1EtLkcOLNvH-20" target="GSx4z-SRz5qHfGtt0uug-4" edge="1">
          <mxGeometry relative="1" as="geometry">
            <mxPoint x="1388.4906513439787" y="437.85288677243216" as="sourcePoint" />
          </mxGeometry>
        </mxCell>
        <mxCell id="GSx4z-SRz5qHfGtt0uug-11" style="edgeStyle=none;rounded=0;orthogonalLoop=1;jettySize=auto;html=1;entryX=0.971;entryY=0.329;entryDx=0;entryDy=0;entryPerimeter=0;fontSize=10;exitX=0.257;exitY=1;exitDx=0;exitDy=0;exitPerimeter=0;" parent="1" source="sOXEI3E_A1EtLkcOLNvH-20" target="GSx4z-SRz5qHfGtt0uug-5" edge="1">
          <mxGeometry relative="1" as="geometry">
            <mxPoint x="1380.9267842643012" y="423.0009980270063" as="sourcePoint" />
          </mxGeometry>
        </mxCell>
        <mxCell id="GSx4z-SRz5qHfGtt0uug-14" style="edgeStyle=none;rounded=0;orthogonalLoop=1;jettySize=auto;html=1;fontSize=10;exitX=0;exitY=1;exitDx=0;exitDy=0;" parent="1" source="sOXEI3E_A1EtLkcOLNvH-20" target="GSx4z-SRz5qHfGtt0uug-13" edge="1">
          <mxGeometry relative="1" as="geometry">
            <mxPoint x="1380.543884352216" y="408.85377396553054" as="sourcePoint" />
          </mxGeometry>
        </mxCell>
        <mxCell id="GSx4z-SRz5qHfGtt0uug-3" value="&lt;font style=&quot;font-size: 10px&quot;&gt;:&lt;u&gt;&lt;b&gt;&lt;font style=&quot;font-size: 10px&quot;&gt;Deporte&lt;/font&gt;&lt;/b&gt;&lt;/u&gt;&lt;/font&gt;" style="ellipse;shape=umlEntity;whiteSpace=wrap;html=1;" parent="1" vertex="1">
          <mxGeometry x="1520" y="420" width="70" height="70" as="geometry" />
        </mxCell>
        <mxCell id="GSx4z-SRz5qHfGtt0uug-4" value="&lt;font style=&quot;font-size: 10px&quot;&gt;:&lt;u&gt;&lt;b&gt;ProgrInteres&lt;/b&gt;&lt;/u&gt;&lt;/font&gt;" style="ellipse;shape=umlEntity;whiteSpace=wrap;html=1;" parent="1" vertex="1">
          <mxGeometry x="1340" y="480" width="70" height="70" as="geometry" />
        </mxCell>
        <mxCell id="GSx4z-SRz5qHfGtt0uug-12" style="edgeStyle=none;rounded=0;orthogonalLoop=1;jettySize=auto;html=1;fontSize=10;" parent="1" source="GSx4z-SRz5qHfGtt0uug-5" target="GSx4z-SRz5qHfGtt0uug-7" edge="1">
          <mxGeometry relative="1" as="geometry" />
        </mxCell>
        <mxCell id="GSx4z-SRz5qHfGtt0uug-5" value="&lt;font style=&quot;font-size: 10px&quot;&gt;:&lt;u&gt;&lt;b&gt;EpisoSerie&lt;/b&gt;&lt;/u&gt;&lt;/font&gt;" style="ellipse;shape=umlEntity;whiteSpace=wrap;html=1;" parent="1" vertex="1">
          <mxGeometry x="1220" y="440" width="70" height="70" as="geometry" />
        </mxCell>
        <mxCell id="GSx4z-SRz5qHfGtt0uug-7" value="&lt;font style=&quot;font-size: 10px&quot;&gt;:&lt;u&gt;&lt;b&gt;Serie&lt;/b&gt;&lt;/u&gt;&lt;/font&gt;" style="ellipse;shape=umlEntity;whiteSpace=wrap;html=1;" parent="1" vertex="1">
          <mxGeometry x="1070" y="520" width="70" height="70" as="geometry" />
        </mxCell>
        <mxCell id="GSx4z-SRz5qHfGtt0uug-13" value="&lt;font style=&quot;font-size: 10px&quot;&gt;:&lt;u&gt;&lt;b&gt;Pelicula&lt;/b&gt;&lt;/u&gt;&lt;/font&gt;" style="ellipse;shape=umlEntity;whiteSpace=wrap;html=1;" parent="1" vertex="1">
          <mxGeometry x="1110" y="350" width="70" height="70" as="geometry" />
        </mxCell>
        <mxCell id="GSx4z-SRz5qHfGtt0uug-19" style="edgeStyle=none;rounded=0;orthogonalLoop=1;jettySize=auto;html=1;fontSize=10;" parent="1" source="GSx4z-SRz5qHfGtt0uug-16" target="GSx4z-SRz5qHfGtt0uug-18" edge="1">
          <mxGeometry relative="1" as="geometry" />
        </mxCell>
        <mxCell id="GSx4z-SRz5qHfGtt0uug-16" value="&lt;font style=&quot;font-size: 10px&quot;&gt;:&lt;u&gt;&lt;b&gt;SeleccGrilla&lt;/b&gt;&lt;/u&gt;&lt;/font&gt;" style="ellipse;shape=umlEntity;whiteSpace=wrap;html=1;" parent="1" vertex="1">
          <mxGeometry x="920" y="390" width="70" height="70" as="geometry" />
        </mxCell>
        <mxCell id="GSx4z-SRz5qHfGtt0uug-25" style="edgeStyle=none;rounded=0;orthogonalLoop=1;jettySize=auto;html=1;fontSize=10;" parent="1" source="GSx4z-SRz5qHfGtt0uug-18" target="GSx4z-SRz5qHfGtt0uug-20" edge="1">
          <mxGeometry relative="1" as="geometry" />
        </mxCell>
        <mxCell id="GSx4z-SRz5qHfGtt0uug-28" style="edgeStyle=none;rounded=0;orthogonalLoop=1;jettySize=auto;html=1;fontSize=10;exitX=1;exitY=0;exitDx=0;exitDy=0;" parent="1" source="GSx4z-SRz5qHfGtt0uug-20" target="GSx4z-SRz5qHfGtt0uug-21" edge="1">
          <mxGeometry relative="1" as="geometry" />
        </mxCell>
        <mxCell id="GSx4z-SRz5qHfGtt0uug-18" value="&lt;div&gt;&lt;font style=&quot;font-size: 10px&quot;&gt;:&lt;u&gt;&lt;b&gt;SeleccEmis&lt;/b&gt;&lt;/u&gt;&lt;/font&gt;&lt;/div&gt;" style="ellipse;shape=umlEntity;whiteSpace=wrap;html=1;" parent="1" vertex="1">
          <mxGeometry x="820" y="490" width="70" height="70" as="geometry" />
        </mxCell>
        <mxCell id="GSx4z-SRz5qHfGtt0uug-26" style="edgeStyle=none;rounded=0;orthogonalLoop=1;jettySize=auto;html=1;entryX=1;entryY=0.5;entryDx=0;entryDy=0;fontSize=10;" parent="1" source="GSx4z-SRz5qHfGtt0uug-20" target="GSx4z-SRz5qHfGtt0uug-24" edge="1">
          <mxGeometry relative="1" as="geometry" />
        </mxCell>
        <mxCell id="GSx4z-SRz5qHfGtt0uug-27" style="edgeStyle=none;rounded=0;orthogonalLoop=1;jettySize=auto;html=1;entryX=0;entryY=0;entryDx=0;entryDy=0;fontSize=10;" parent="1" source="GSx4z-SRz5qHfGtt0uug-20" target="GSx4z-SRz5qHfGtt0uug-23" edge="1">
          <mxGeometry relative="1" as="geometry" />
        </mxCell>
        <mxCell id="GSx4z-SRz5qHfGtt0uug-29" style="edgeStyle=none;rounded=0;orthogonalLoop=1;jettySize=auto;html=1;entryX=0;entryY=0.5;entryDx=0;entryDy=0;fontSize=10;" parent="1" source="GSx4z-SRz5qHfGtt0uug-20" target="GSx4z-SRz5qHfGtt0uug-22" edge="1">
          <mxGeometry relative="1" as="geometry" />
        </mxCell>
        <mxCell id="GSx4z-SRz5qHfGtt0uug-20" value="&lt;font style=&quot;font-size: 10px&quot;&gt;:&lt;u&gt;&lt;b&gt;SeleccPelicula&lt;/b&gt;&lt;/u&gt;&lt;/font&gt;" style="ellipse;shape=umlEntity;whiteSpace=wrap;html=1;" parent="1" vertex="1">
          <mxGeometry x="820" y="630" width="70" height="70" as="geometry" />
        </mxCell>
        <mxCell id="GSx4z-SRz5qHfGtt0uug-21" value="&lt;font style=&quot;font-size: 10px&quot;&gt;:&lt;u&gt;&lt;b&gt;Categoria&lt;/b&gt;&lt;/u&gt;&lt;/font&gt;" style="ellipse;shape=umlEntity;whiteSpace=wrap;html=1;" parent="1" vertex="1">
          <mxGeometry x="980" y="620" width="70" height="70" as="geometry" />
        </mxCell>
        <mxCell id="GSx4z-SRz5qHfGtt0uug-22" value="&lt;font style=&quot;font-size: 10px&quot;&gt;:&lt;u&gt;&lt;b&gt;Calificacion&lt;/b&gt;&lt;/u&gt;&lt;/font&gt;" style="ellipse;shape=umlEntity;whiteSpace=wrap;html=1;" parent="1" vertex="1">
          <mxGeometry x="980" y="750" width="70" height="70" as="geometry" />
        </mxCell>
        <mxCell id="GSx4z-SRz5qHfGtt0uug-23" value="&lt;font style=&quot;font-size: 10px&quot;&gt;:&lt;u&gt;&lt;b&gt;Rol&lt;/b&gt;&lt;/u&gt;&lt;/font&gt;" style="ellipse;shape=umlEntity;whiteSpace=wrap;html=1;" parent="1" vertex="1">
          <mxGeometry x="850" y="780" width="70" height="70" as="geometry" />
        </mxCell>
        <mxCell id="GSx4z-SRz5qHfGtt0uug-24" value="&lt;font style=&quot;font-size: 10px&quot;&gt;:&lt;u&gt;&lt;b&gt;Elenco&lt;/b&gt;&lt;/u&gt;&lt;/font&gt;" style="ellipse;shape=umlEntity;whiteSpace=wrap;html=1;" parent="1" vertex="1">
          <mxGeometry x="670" y="710" width="70" height="70" as="geometry" />
        </mxCell>
        <mxCell id="BFlHvw_AC2o8eilIW3dE-1" value="&lt;div&gt;13. * tieneTexto()&lt;/div&gt;" style="html=1;verticalAlign=bottom;endArrow=block;rounded=0;" edge="1" parent="1">
          <mxGeometry x="0.2857" y="35" width="80" relative="1" as="geometry">
            <mxPoint x="1470" y="290" as="sourcePoint" />
            <mxPoint x="1540" y="360" as="targetPoint" />
            <mxPoint y="-1" as="offset" />
          </mxGeometry>
        </mxCell>
        <mxCell id="BFlHvw_AC2o8eilIW3dE-2" value="&lt;div&gt;14. getNombre()&lt;/div&gt;" style="html=1;verticalAlign=bottom;endArrow=block;rounded=0;" edge="1" parent="1">
          <mxGeometry x="1" y="51" width="80" relative="1" as="geometry">
            <mxPoint x="1460" y="300" as="sourcePoint" />
            <mxPoint x="1530" y="370" as="targetPoint" />
            <mxPoint x="14" y="46" as="offset" />
          </mxGeometry>
        </mxCell>
        <mxCell id="BFlHvw_AC2o8eilIW3dE-3" value="&lt;div&gt;15. * tieneTexto()&lt;/div&gt;" style="html=1;verticalAlign=bottom;endArrow=block;rounded=0;" edge="1" parent="1">
          <mxGeometry x="-0.38" y="47" width="80" relative="1" as="geometry">
            <mxPoint x="1420" y="330" as="sourcePoint" />
            <mxPoint x="1400" y="470" as="targetPoint" />
            <mxPoint as="offset" />
          </mxGeometry>
        </mxCell>
        <mxCell id="BFlHvw_AC2o8eilIW3dE-4" value="&lt;div&gt;16. getNombre()&lt;/div&gt;" style="html=1;verticalAlign=bottom;endArrow=block;rounded=0;" edge="1" parent="1">
          <mxGeometry x="0.1967" y="46" width="80" relative="1" as="geometry">
            <mxPoint x="1430" y="360" as="sourcePoint" />
            <mxPoint x="1420" y="470" as="targetPoint" />
            <mxPoint as="offset" />
          </mxGeometry>
        </mxCell>
        <mxCell id="BFlHvw_AC2o8eilIW3dE-5" value="&lt;div&gt;19. * tieneTexto()&lt;/div&gt;" style="html=1;verticalAlign=bottom;endArrow=block;rounded=0;" edge="1" parent="1">
          <mxGeometry x="-0.04" y="-14" width="80" relative="1" as="geometry">
            <mxPoint x="1350" y="330" as="sourcePoint" />
            <mxPoint x="1290" y="410" as="targetPoint" />
            <mxPoint as="offset" />
          </mxGeometry>
        </mxCell>
        <mxCell id="BFlHvw_AC2o8eilIW3dE-6" value="20. getNombre()" style="html=1;verticalAlign=bottom;endArrow=block;rounded=0;" edge="1" parent="1">
          <mxGeometry x="0.1812" y="2" width="80" relative="1" as="geometry">
            <mxPoint x="1368" y="320" as="sourcePoint" />
            <mxPoint x="1298" y="420" as="targetPoint" />
            <mxPoint as="offset" />
          </mxGeometry>
        </mxCell>
        <mxCell id="BFlHvw_AC2o8eilIW3dE-7" value="&lt;div&gt;17. * tieneTexto()&lt;/div&gt;" style="html=1;verticalAlign=bottom;endArrow=block;rounded=0;" edge="1" parent="1">
          <mxGeometry x="-0.1379" y="-19" width="80" relative="1" as="geometry">
            <mxPoint x="1320" y="300" as="sourcePoint" />
            <mxPoint x="1220" y="340" as="targetPoint" />
            <mxPoint y="1" as="offset" />
          </mxGeometry>
        </mxCell>
        <mxCell id="BFlHvw_AC2o8eilIW3dE-8" value="&lt;div&gt;18. getNombre()&lt;/div&gt;" style="html=1;verticalAlign=bottom;endArrow=block;rounded=0;" edge="1" parent="1">
          <mxGeometry x="-0.2" y="19" width="80" relative="1" as="geometry">
            <mxPoint x="1310" y="290" as="sourcePoint" />
            <mxPoint x="1220" y="320" as="targetPoint" />
            <mxPoint as="offset" />
          </mxGeometry>
        </mxCell>
      </root>
    </mxGraphModel>
  </diagram>
  <diagram id="o51IDwSG4NsMt3olw-tM" name="DiagClas">
    <mxGraphModel dx="862" dy="468" grid="1" gridSize="10" guides="1" tooltips="1" connect="1" arrows="1" fold="1" page="1" pageScale="1" pageWidth="827" pageHeight="1169" math="0" shadow="0">
      <root>
        <mxCell id="0" />
        <mxCell id="1" parent="0" />
        <mxCell id="WpKVzuqlTEtbMuC5cEqb-9" value="&lt;p style=&quot;margin: 0px ; margin-top: 4px ; text-align: center&quot;&gt;&lt;i&gt;&amp;lt;&amp;lt;Entity&amp;gt;&amp;gt;&lt;/i&gt;&lt;br&gt;&lt;b&gt;Programa&lt;/b&gt;&lt;/p&gt;&lt;hr size=&quot;1&quot;&gt;&lt;p style=&quot;margin: 0px ; margin-left: 4px&quot;&gt;- descripcion&lt;/p&gt;&lt;p style=&quot;margin: 0px ; margin-left: 4px&quot;&gt;- duracion&lt;/p&gt;&lt;p style=&quot;margin: 0px ; margin-left: 4px&quot;&gt;- nombre&lt;br&gt;&lt;/p&gt;&lt;hr size=&quot;1&quot;&gt;&lt;p style=&quot;margin: 0px ; margin-left: 4px&quot;&gt;+ method1(Type): Type&lt;br&gt;+ method2(Type, Type): Type&lt;/p&gt;" style="verticalAlign=top;align=left;overflow=fill;fontSize=12;fontFamily=Helvetica;html=1;" vertex="1" parent="1">
          <mxGeometry x="440" y="130" width="190" height="140" as="geometry" />
        </mxCell>
      </root>
    </mxGraphModel>
  </diagram>
</mxfile>
